<?xml version="1.0" encoding="utf-8"?>
<!-- Generator: Adobe Illustrator 22.0.1, SVG Export Plug-In . SVG Version: 6.00 Build 0)  -->
<svg version="1.1" xmlns="http://www.w3.org/2000/svg" xmlns:xlink="http://www.w3.org/1999/xlink" x="0px" y="0px"
	 viewBox="0 0 161.3 195.5" style="enable-background:new 0 0 161.3 195.5;" xml:space="preserve">
<style type="text/css">
	.st0{fill:none;stroke:#4D4D4D;stroke-width:4;stroke-miterlimit:10;}
	.st1{display:none;}
	.st2{display:inline;fill:#4D4D4D;}
</style>
<g id="Layer_2_1_">
	<path class="st0" d="M149.4,190.8h-137c-3.1,0-5.7-2.6-5.7-5.7V11.4c0-3.1,2.6-5.7,5.7-5.7h137c3.1,0,5.7,2.6,5.7,5.7v173.7
		C155.1,188.3,152.5,190.8,149.4,190.8z"/>
	<path class="st0" d="M110.5,38.1H50.8c-0.1,0-0.2-0.1-0.2-0.2l0,0c0-0.1,0.1-0.2,0.2-0.2h59.7c0.1,0,0.2,0.1,0.2,0.2l0,0
		C110.6,38,110.5,38.1,110.5,38.1z"/>
	<path class="st0" d="M130.5,62.4H31.9c-0.1,0-0.2-0.1-0.2-0.2l0,0c0-0.1,0.1-0.2,0.2-0.2h98.6c0.1,0,0.2,0.1,0.2,0.2l0,0
		C130.7,62.3,130.6,62.4,130.5,62.4z"/>
	<path class="st0" d="M130.5,86.7H31.9c-0.1,0-0.2-0.1-0.2-0.2l0,0c0-0.1,0.1-0.2,0.2-0.2h98.6c0.1,0,0.2,0.1,0.2,0.2l0,0
		C130.7,86.6,130.6,86.7,130.5,86.7z"/>
	<path class="st0" d="M130.5,108.5H31.9c-0.1,0-0.2-0.1-0.2-0.2l0,0c0-0.1,0.1-0.2,0.2-0.2h98.6c0.1,0,0.2,0.1,0.2,0.2l0,0
		C130.7,108.5,130.6,108.5,130.5,108.5z"/>
	<path class="st0" d="M130.5,132.8H31.9c-0.1,0-0.2-0.1-0.2-0.2l0,0c0-0.1,0.1-0.2,0.2-0.2h98.6c0.1,0,0.2,0.1,0.2,0.2l0,0
		C130.7,132.8,130.6,132.8,130.5,132.8z"/>
	<path class="st0" d="M130.5,157.1H31.9c-0.1,0-0.2-0.1-0.2-0.2l0,0c0-0.1,0.1-0.2,0.2-0.2h98.6c0.1,0,0.2,0.1,0.2,0.2l0,0
		C130.7,157.1,130.6,157.1,130.5,157.1z"/>
</g>
<g id="Layer_4" class="st1">
	<path class="st2" d="M44.3,59.5H9.9c-0.6,0-1-0.4-1-1V24.2c0-0.6,0.4-1,1-1h34.3c0.6,0,1,0.4,1,1v34.3
		C45.3,59.1,44.8,59.5,44.3,59.5z"/>
	<path class="st2" d="M98.5,59.5H64.1c-0.6,0-1-0.4-1-1V24.2c0-0.6,0.5-1,1-1h34.3c0.6,0,1,0.4,1,1v34.3
		C99.5,59.1,99,59.5,98.5,59.5z"/>
	<path class="st2" d="M152.9,59.5h-34.3c-0.6,0-1-0.4-1-1V24.2c0-0.6,0.4-1,1-1h34.3c0.6,0,1,0.4,1,1v34.3
		C153.9,59.1,153.5,59.5,152.9,59.5z"/>
	<path class="st2" d="M44.2,113.9H9.8c-0.5,0-1-0.5-1-1V78.6c0-0.6,0.5-1,1-1h34.3c0.5,0,1,0.4,1,1v34.3
		C45.2,113.5,44.7,113.9,44.2,113.9z"/>
	<path class="st2" d="M98.4,113.9H64c-0.6,0-1-0.5-1-1V78.6c0-0.6,0.4-1,1-1h34.3c0.5,0,1,0.4,1,1v34.3
		C99.4,113.5,98.9,113.9,98.4,113.9z"/>
	<path class="st2" d="M152.8,113.9h-34.3c-0.6,0-1-0.5-1-1V78.6c0-0.6,0.4-1,1-1h34.3c0.6,0,1,0.4,1,1v34.3
		C153.8,113.5,153.3,113.9,152.8,113.9z"/>
	<path class="st2" d="M44.2,168.4H9.8c-0.5,0-1-0.4-1-1v-34.3c0-0.5,0.5-1,1-1h34.3c0.5,0,1,0.5,1,1v34.3
		C45.2,167.9,44.7,168.4,44.2,168.4z"/>
	<path class="st2" d="M98.4,168.4H64c-0.6,0-1-0.4-1-1v-34.3c0-0.5,0.4-1,1-1h34.3c0.5,0,1,0.5,1,1v34.3
		C99.4,167.9,98.9,168.4,98.4,168.4z"/>
	<path class="st2" d="M152.8,168.4h-34.3c-0.6,0-1-0.4-1-1v-34.3c0-0.5,0.4-1,1-1h34.3c0.6,0,1,0.5,1,1v34.3
		C153.8,167.9,153.3,168.4,152.8,168.4z"/>
</g>
</svg>
